<svg xmlns="http://www.w3.org/2000/svg" viewBox="0 0 620.19 348.32"><title>Asset 8</title><g id="Layer_2" data-name="Layer 2"><g id="Layer_1-2" data-name="Layer 1"><path d="M35.61,166.86a41.56,41.56,0,1,0,58.77,58.77l29.4-29.37-29.4-29.4a41.61,41.61,0,0,0-58.77,0Z"/><path d="M444.21,297.18V197.49l-99.65,99.69H285.2V118.74l-77.48,77.52,59,59-42,42-59-59-29.36,29.4A100.87,100.87,0,0,1,0,273.44v15.78a59.1,59.1,0,0,0,59.1,59.1h502a59.1,59.1,0,0,0,59.11-59.1V180.56L503.57,297.18Z"/><path d="M620.19,61.78V96.59L503.56,213.21V138.14L461.62,96.19l-17.4,17.36-99.67,99.66v-119L327.15,76.8l-41.94-42L165.73,154.28l-29.37-29.36A100.94,100.94,0,0,0,24.47,103.85l-.15.07a97.92,97.92,0,0,0-12,6.3c-.32.2-.67.4-1,.62-1.75,1.11-3.47,2.26-5.15,3.47L5,115.15c-1.57,1.18-3.15,2.38-4.65,3.64-.12.1-.25.17-.37.27V88.88A125.35,125.35,0,0,1,24.61,77.44l0,0a125.49,125.49,0,0,1,129.13,30.11l12,11.93L224,61.19,267.8,17.4l9-9.06L285.21,0l8.37,8.34,9,9.06,31.63,31.66L344.55,59.4,362,76.75,369.17,84v69.81l57.64-57.63,17.43-17.37,17.4-17.38L479,78.77l42,42,7.21,7.22v25.82l53.36-53.34Z"/></g></g></svg>